<?xml version="1.0" encoding="UTF-8"?>
<svg version="1.1" xmlns="http://www.w3.org/2000/svg" width="1034" height="1034">
<path d="M0 0 C341.22 0 682.44 0 1034 0 C1034 341.22 1034 682.44 1034 1034 C692.78 1034 351.56 1034 0 1034 C0 692.78 0 351.56 0 0 Z " fill="#F1E4E5" transform="translate(0,0)"/>
<path d="M0 0 C1.41205428 -0.00573832 1.41205428 -0.00573832 2.85263491 -0.01159257 C5.99178004 -0.02187071 9.13074047 -0.01794008 12.26989746 -0.01396179 C14.52767607 -0.01831154 16.7854532 -0.02349557 19.04322815 -0.02944946 C25.17022018 -0.04283304 31.29715048 -0.04341805 37.42415428 -0.04088616 C42.5545013 -0.03981445 47.68483594 -0.04470577 52.8151803 -0.04949158 C65.63218368 -0.06122212 78.44914297 -0.06036336 91.26614696 -0.05393478 C102.34278624 -0.04878495 113.41933706 -0.05997064 124.49595886 -0.07903299 C135.90946597 -0.09852173 147.3229152 -0.10635755 158.73644209 -0.10290974 C165.12773694 -0.10110835 171.51895108 -0.10361607 177.91023254 -0.11762428 C183.93824989 -0.13034061 189.96609306 -0.12813012 195.9941082 -0.11521339 C198.18678793 -0.11287648 200.37948043 -0.11547632 202.57214546 -0.12383652 C230.03004637 -0.22083647 258.40297869 2.83444804 284.35388184 12.26069641 C285.50340332 12.67811096 285.50340332 12.67811096 286.67614746 13.10395813 C324.41881391 27.05003932 355.89594277 49.75926869 373.22717285 86.91914368 C384.20786823 111.46611232 387.72582409 137.20984308 387.66955566 163.87690735 C387.66640059 166.9921744 387.68992943 170.10648367 387.71520996 173.22163391 C387.84186717 213.55627013 375.7638263 250.95516701 347.35388184 280.26069641 C330.19109893 297.48812256 305.57833436 309.19588531 281.35388184 310.26069641 C281.35388184 315.21069641 281.35388184 320.16069641 281.35388184 325.26069641 C282.83888184 325.63194641 284.32388184 326.00319641 285.85388184 326.38569641 C310.92500404 333.28747781 331.70772188 345.26878768 350.35388184 363.26069641 C351.07060059 363.92585266 351.78731934 364.59100891 352.52575684 365.27632141 C380.2534666 391.67310111 392.2072842 431.59605666 393.4798584 468.95942688 C394.02718428 496.70330635 392.88034336 523.1754956 372.60388184 544.51069641 C353.74056765 562.51788438 329.3893436 566.75188427 304.27185059 566.47554016 C282.91478228 565.92352732 264.15805924 558.834219 249.0645752 543.508255 C231.47164324 524.84197223 227.12433388 502.96219242 225.11584473 478.2011261 C223.18575462 454.60465691 219.77530167 432.6890091 209.35388184 411.26069641 C208.89368652 410.27714172 208.43349121 409.29358704 207.95935059 408.28022766 C198.32544461 389.04017913 181.57870197 376.77267898 162.35388184 368.26069641 C161.30974121 367.77858704 160.26560059 367.29647766 159.18981934 366.79975891 C143.0759974 359.92952475 126.3681926 358.99237048 109.10388184 358.65132141 C107.37600179 358.61178971 105.64813683 358.57159268 103.92028809 358.53071594 C99.73162022 358.43304815 95.54285202 358.34435141 91.35388184 358.26069641 C91.35664721 358.9543974 91.35941259 359.64809839 91.36226177 360.36282063 C91.42882879 377.32691494 91.47831064 394.29096731 91.50931835 411.25516224 C91.52471617 419.45928482 91.54566817 427.66331965 91.5802002 435.86738586 C91.61032167 443.02708031 91.62950816 450.18671113 91.63614732 457.3464672 C91.64002153 461.12932105 91.64897387 464.91199305 91.67107201 468.69478798 C91.83067858 497.13522175 91.39019831 524.15762253 70.65856934 546.13960266 C51.22480066 564.02525756 27.0917946 567.49594046 1.51452637 566.47651672 C-5.50454797 565.99722878 -11.98728201 564.47064748 -18.64611816 562.26069641 C-19.7379541 561.89846985 -20.82979004 561.53624329 -21.95471191 561.16304016 C-37.87635267 555.17974841 -51.57033364 542.72994982 -58.64611816 527.26069641 C-60.64884602 522.02712814 -62.21985095 516.67560285 -63.64611816 511.26069641 C-63.99196457 510.00258652 -64.33781097 508.74447662 -64.69413757 507.44824219 C-66.14670338 500.79798544 -65.93383653 494.07656568 -65.92077637 487.30293274 C-65.92513125 485.80349984 -65.93031697 484.30406916 -65.93626404 482.80464172 C-65.94960383 478.74747935 -65.9502367 474.69041047 -65.94770074 470.63323045 C-65.94662438 467.2207582 -65.95153295 463.80830433 -65.95630616 460.39583606 C-65.96739102 452.31456114 -65.96784906 444.23333267 -65.96179199 436.15205383 C-65.95579703 427.89597456 -65.96795042 419.64006764 -65.98936206 411.38401777 C-66.00718582 404.24116511 -66.01294603 397.09836618 -66.00972432 389.9554922 C-66.00793877 385.71470413 -66.01026302 381.47403803 -66.02443886 377.23327065 C-66.19435576 321.61395946 -60.25542687 266.03287503 -22.64611816 222.26069641 C-21.99127441 221.48468079 -21.33643066 220.70866516 -20.66174316 219.90913391 C-16.33123113 214.89043973 -11.7853478 210.44176459 -6.64611816 206.26069641 C-5.69994629 205.47694641 -4.75377441 204.69319641 -3.77893066 203.88569641 C4.06682318 197.53315093 12.31988785 192.73396038 21.35388184 188.26069641 C21.06484922 186.76018663 20.77248265 185.26031903 20.47888184 183.76069641 C20.31645996 182.92538391 20.15403809 182.09007141 19.98669434 181.22944641 C19.20172174 177.54685893 18.28177557 173.90989192 17.35388184 170.26069641 C16.66463623 170.24087708 15.97539063 170.22105774 15.26525879 170.20063782 C-11.85116914 169.3807809 -33.26148083 167.53526465 -52.95861816 146.94819641 C-60.37724727 138.33263193 -64.82409014 129.45672855 -68.45861816 118.76069641 C-68.74889893 117.90685364 -69.03917969 117.05301086 -69.33825684 116.17329407 C-72.98316046 104.85677712 -73.97285532 93.92269187 -73.89611816 82.07319641 C-73.90385254 80.86727844 -73.91158691 79.66136047 -73.91955566 78.41889954 C-73.90497516 71.74467448 -73.4837081 65.68056175 -71.64611816 59.26069641 C-71.38073242 58.26501648 -71.38073242 58.26501648 -71.10998535 57.2492218 C-65.59629192 37.09940433 -54.89358953 20.63157789 -36.83361816 9.44819641 C-30.70395221 6.04019681 -24.41535309 4.00253613 -17.64611816 2.26069641 C-16.4590049 1.91907376 -15.27189163 1.57745111 -14.04880524 1.22547626 C-9.34197671 0.05792812 -4.82983519 -0.02105565 0 0 Z " fill="#EE297B" transform="translate(501.6461181640625,270.7393035888672)"/>
<path d="M0 0 C3.38252495 26.68134232 6.54926559 53.37854033 9.375 80.125 C9.50787415 81.37159393 9.64074829 82.61818787 9.77764893 83.90255737 C10.15559446 87.45803524 10.52807945 91.01403712 10.8984375 94.5703125 C11.01064636 95.6255864 11.12285522 96.68086029 11.23846436 97.76811218 C11.3394342 98.7522963 11.44040405 99.73648041 11.54443359 100.75048828 C11.63292572 101.59974884 11.72141785 102.4490094 11.81259155 103.32400513 C12.03881522 106.55424037 12.01137748 109.7627242 12 113 C13.01708731 112.99815641 14.03417461 112.99631283 15.08208275 112.99441338 C39.9432037 112.94981895 64.8043194 112.91705643 89.66547203 112.89637566 C101.688617 112.88610625 113.71173539 112.87212986 125.73486328 112.84912109 C136.22625645 112.82905336 146.71763036 112.81625215 157.20904219 112.81182301 C162.7531998 112.80923806 168.29730233 112.80325515 173.84144211 112.78853989 C231.48764521 112.64153673 231.48764521 112.64153673 253.625 117.3125 C254.69927246 117.5297876 255.77354492 117.7470752 256.88037109 117.97094727 C265.47585886 119.76571615 273.73127344 122.04308922 282 125 C282.96824707 125.33402832 282.96824707 125.33402832 283.95605469 125.67480469 C322.26690304 138.90538992 355.05643187 163.03467079 373.18505859 199.83764648 C378.33759451 210.6880219 381.89432455 221.91096101 384.75 233.5625 C384.94875732 234.36389404 385.14751465 235.16528809 385.35229492 235.9909668 C388.90056468 251.25628335 389.34641758 266.34985608 389.31567383 281.95288086 C389.31251522 285.29639375 389.33605322 288.63901766 389.36132812 291.98242188 C389.48246199 333.19536203 376.63751346 371.46766216 347.8125 401.5625 C337.26517495 411.84614192 325.33031944 418.89730102 312 425 C310.948125 425.495 309.89625 425.99 308.8125 426.5 C300.78792519 430.08544832 291.8659292 433 283 433 C283 435.31 283 437.62 283 440 C283.99257813 440.1134375 284.98515625 440.226875 286.0078125 440.34375 C309.23309489 443.69993732 331.49395728 459.14176116 348 475 C349.43279297 476.33804688 349.43279297 476.33804688 350.89453125 477.703125 C375.16983507 500.76289915 387.76817218 531.36076123 393 564 C393.11714355 564.69496582 393.23428711 565.38993164 393.35498047 566.10595703 C398.23099816 596.12280887 397.74716644 630.16322177 380.75 656.25 C367.31872151 674.21806589 348.7821803 684.51405695 326.8984375 688.2734375 C300.2626566 692.06274382 273.38145478 689.08808449 251.25390625 673.00390625 C231.69782045 657.78758984 221.56192662 636.11160663 218 612 C217.40722737 607.09102419 217.0311756 602.16409421 216.66415405 597.23394775 C214.4926869 568.50954287 209.91721512 539.57278169 192 516 C191.50371094 515.34 191.00742187 514.68 190.49609375 514 C179.69365094 500.67264887 161.46115148 490.50471409 145 486 C144.37512695 485.82629883 143.75025391 485.65259766 143.10644531 485.47363281 C131.57797172 482.39973083 120.16142674 481.65491139 108.29296875 481.38671875 C106.80283818 481.34748958 105.31272543 481.30757709 103.82263184 481.26696777 C100.21525877 481.17011752 96.60773423 481.08245531 93 481 C93.00276538 481.67916159 93.00553076 482.35832317 93.00837994 483.05806541 C93.07493319 499.66296488 93.12442222 516.26782153 93.15543652 532.87282372 C93.17083742 540.90322059 93.19179551 548.93352787 93.22631836 556.96386719 C93.25643019 563.97156486 93.27562409 570.97919757 93.28226548 577.98695815 C93.28614129 581.68985716 93.29510423 585.39257051 93.31719017 589.09540939 C93.48021442 617.5653094 92.28801809 644.71161545 71.50390625 666.62109375 C54.66838775 682.61614955 33.98216019 689.18804499 11.11450195 689.18530273 C9.07156564 689.18749029 7.02916929 689.20568735 4.98632812 689.22460938 C3.68244141 689.22654297 2.37855469 689.22847656 1.03515625 689.23046875 C-0.1468335 689.23457764 -1.32882324 689.23868652 -2.54663086 689.24291992 C-6.34369792 688.9758233 -9.38918663 688.16289219 -13 687 C-13.12528076 687.86874756 -13.25056152 688.73749512 -13.37963867 689.63256836 C-15.94385191 707.29133389 -18.81049279 724.79768717 -22.44775391 742.27294922 C-23.77399514 748.82207151 -24.88540342 755.4120999 -26 762 C-29 762 -29 762 -30.578125 760.75 C-31.12984375 760.1725 -31.6815625 759.595 -32.25 759 C-32.87003906 758.35289062 -33.49007813 757.70578125 -34.12890625 757.0390625 C-36.44190807 754.51842169 -38.69164113 751.94997343 -40.92578125 749.359375 C-43.52629095 746.40135643 -46.19731019 743.51307375 -48.875 740.625 C-53.19764932 735.96073704 -57.47816757 731.26305715 -61.72265625 726.52734375 C-64.29809775 723.66917797 -66.89685764 720.83289739 -69.5 718 C-73.59169207 713.54667383 -77.64822977 709.06340112 -81.6875 704.5625 C-84.27615003 701.69399591 -86.88585146 698.8452335 -89.5 696 C-93.59166107 691.54664513 -97.64822946 687.06340146 -101.6875 682.5625 C-104.27615003 679.69399591 -106.88585146 676.8452335 -109.5 674 C-113.59166107 669.54664513 -117.64822946 665.06340146 -121.6875 660.5625 C-124.27615003 657.69399591 -126.88585146 654.8452335 -129.5 652 C-133.59166107 647.54664513 -137.64822946 643.06340146 -141.6875 638.5625 C-144.27615003 635.69399591 -146.88585146 632.8452335 -149.5 630 C-153.59166107 625.54664513 -157.64822946 621.06340146 -161.6875 616.5625 C-164.27615003 613.69399591 -166.88585146 610.8452335 -169.5 608 C-173.59166107 603.54664513 -177.64822946 599.06340146 -181.6875 594.5625 C-184.73629924 591.18410085 -187.81496684 587.83344354 -190.89428711 584.48291016 C-194.70132074 580.33650283 -198.4690185 576.15578041 -202.22265625 571.9609375 C-204.61681283 568.97915139 -204.61681283 568.97915139 -208.00805157 567.75930882 C-214.30784047 567.84932603 -220.42353251 568.41327703 -226.65986633 569.29077148 C-228.1987231 569.49903265 -228.1987231 569.49903265 -229.76866788 569.71150112 C-233.18171821 570.17503186 -236.59338143 570.6480624 -240.00512695 571.12109375 C-242.46143249 571.45664919 -244.91782004 571.79160479 -247.37428284 572.12600708 C-252.65121673 572.8456606 -257.9275737 573.56934393 -263.20345497 574.29666138 C-270.83669803 575.34889032 -278.47103154 576.39302586 -286.10566559 577.43510854 C-298.50154552 579.12723166 -310.89666926 580.82482641 -323.29125977 582.52636719 C-324.03194689 582.62804809 -324.77263402 582.72972899 -325.53576621 582.83449113 C-326.27739622 582.93630178 -327.01902623 583.03811242 -327.78312987 583.14300823 C-338.3087602 584.58794956 -348.83456919 586.03158023 -359.3605957 587.47363281 C-360.47253767 587.62596959 -360.47253767 587.62596959 -361.60694311 587.78138387 C-373.96365959 589.47414957 -386.32074554 591.16420753 -398.67802209 592.85287952 C-406.2950397 593.89395433 -413.91166824 594.93780188 -421.5278128 595.98524499 C-427.35720449 596.78683327 -433.18703731 597.58517781 -439.01703453 598.38235092 C-441.40975346 598.7101245 -443.80231322 599.03906238 -446.19470215 599.36923599 C-449.45440759 599.81896496 -452.71464726 600.26460118 -455.97505188 600.70922852 C-456.92640355 600.84152076 -457.87775522 600.973813 -458.85793573 601.1101141 C-459.73257287 601.22854955 -460.60721002 601.346985 -461.50835133 601.4690094 C-462.26047266 601.57229333 -463.01259399 601.67557726 -463.78750688 601.781991 C-466.20410744 602.02011182 -468.57324104 602.03628967 -471 602 C-466.41026004 592.19935228 -461.09987101 582.90326239 -455.60888672 573.58398438 C-451.30840672 566.27485927 -447.12036362 558.91201512 -443 551.5 C-437.86416955 542.27042283 -432.59786808 533.12761908 -427.25 524.01953125 C-423.07756041 516.8947181 -419.01504756 509.71453859 -415 502.5 C-409.86368611 493.27068598 -404.59787465 484.12763027 -399.25 475.01953125 C-395.07756041 467.8947181 -391.01504756 460.71453859 -387 453.5 C-381.86528364 444.27355655 -376.60236103 435.1325788 -371.25439453 426.02832031 C-366.42903199 417.79134416 -361.76355028 409.47112484 -357.14233398 401.11816406 C-354.33237329 396.06495072 -351.46408768 391.07133231 -348.41796875 386.15625 C-347.85287598 385.24198242 -347.2877832 384.32771484 -346.70556641 383.38574219 C-345.63907988 381.67492666 -344.55999435 379.97187714 -343.46630859 378.27832031 C-342.99402832 377.52131836 -342.52174805 376.76431641 -342.03515625 375.984375 C-341.6162915 375.33178711 -341.19742676 374.67919922 -340.76586914 374.00683594 C-339.37705702 370.36767889 -340.73678626 367.6171615 -342.20825195 364.16699219 C-342.71316162 363.13735352 -343.21807129 362.10771484 -343.73828125 361.046875 C-344.30466309 359.88381836 -344.87104492 358.72076172 -345.45458984 357.52246094 C-346.07385445 356.26495486 -346.69315888 355.0074684 -347.3125 353.75 C-347.9532707 352.43813499 -348.59339872 351.1259559 -349.23291016 349.81347656 C-350.53453509 347.1428548 -351.83851436 344.4734029 -353.14404297 341.8046875 C-355.75149636 336.46772615 -358.31287081 331.10882886 -360.875 325.75 C-365.55372634 315.98556384 -370.27202967 306.24064762 -375 296.5 C-382.18313145 281.70057495 -389.31267023 266.87602195 -396.41796875 252.0390625 C-402.94309304 238.41674823 -409.50898848 224.81487617 -416.10528564 211.22692871 C-420.73637235 201.68584965 -425.34304194 192.1338633 -429.90722656 182.56054688 C-432.44839448 177.23383124 -435.00411129 171.91437397 -437.57421875 166.6015625 C-437.88387573 165.96126099 -438.19353271 165.32095947 -438.51257324 164.66125488 C-440.02516684 161.53412819 -441.53916454 158.40769888 -443.05517578 155.28222656 C-445.87508716 149.45588225 -448.67095462 143.61886053 -451.41796875 137.7578125 C-452.16276489 136.17057373 -452.16276489 136.17057373 -452.92260742 134.55126953 C-454 132 -454 132 -454 130 C-447.3871372 130.85881335 -440.85960693 132.11723675 -434.3125 133.375 C-433.20455078 133.58382812 -432.09660156 133.79265625 -430.95507812 134.0078125 C-425.62698511 135.02921198 -420.35162185 136.13001552 -415.09765625 137.484375 C-408.16474862 139.26192668 -401.15786978 140.56028107 -394.125 141.875 C-385.04525673 143.59375036 -375.99663117 145.38122193 -367 147.5 C-357.54247985 149.72477074 -348.02363927 151.57239337 -338.48028564 153.38323975 C-329.17868622 155.15132638 -319.93783452 157.0907369 -310.71826172 159.24609375 C-303.84739768 160.84067945 -296.94898323 162.19587665 -290.01513672 163.48535156 C-280.40704279 165.27829211 -270.84936571 167.29972101 -261.28515625 169.31152344 C-255.35933913 170.55340842 -249.42940537 171.7753851 -243.5 173 C-241.05857593 173.50512222 -238.61716956 174.01032997 -236.17578125 174.515625 C-232.61918034 175.25163913 -229.06247343 175.987116 -225.50537109 176.72070312 C-222.23244635 177.39568804 -218.95993852 178.07266235 -215.6875 178.75 C-214.23923828 179.04777344 -214.23923828 179.04777344 -212.76171875 179.3515625 C-208.68277154 180.19748053 -204.6573316 181.08309951 -200.64453125 182.203125 C-196.19996694 183.21031526 -196.19996694 183.21031526 -192 182 C-189.46466253 180.07656021 -187.21131755 177.90985916 -184.9375 175.6875 C-184.28064209 175.06029053 -183.62378418 174.43308105 -182.94702148 173.78686523 C-178.2468723 169.27783914 -173.63856163 164.67658711 -169.06152344 160.04296875 C-166.51957463 157.47867692 -163.94446635 155.0184973 -161.1875 152.6875 C-156.3891342 148.61341583 -152.03325823 144.08351998 -147.62963867 139.5925293 C-144.52522226 136.44546867 -141.38144493 133.41686712 -138.03125 130.53125 C-133.8076119 126.88933509 -129.90341837 122.97965701 -126 119 C-121.47021287 114.38174047 -116.87040516 109.9680272 -111.96875 105.74609375 C-108.66244449 102.81371565 -105.59281885 99.65415868 -102.5 96.5 C-98.20047464 92.15419795 -93.8966892 87.93931722 -89.21875 84 C-85.84987939 80.96327156 -82.69090341 77.72188306 -79.5 74.5 C-75.19812143 70.15635562 -70.89692101 65.93951243 -66.21875 62 C-62.84987939 58.96327156 -59.69090341 55.72188306 -56.5 52.5 C-52.19812143 48.15635562 -47.89692101 43.93951243 -43.21875 40 C-39.19090944 36.36927048 -35.42461585 32.46278673 -31.62890625 28.59179688 C-28.53275804 25.45310117 -25.39856545 22.43350821 -22.0546875 19.55859375 C-16.89841985 15.11478756 -12.21108999 10.22603189 -7.47265625 5.34570312 C-6.45365234 4.31026367 -6.45365234 4.31026367 -5.4140625 3.25390625 C-4.8051416 2.62814697 -4.1962207 2.0023877 -3.56884766 1.35766602 C-2 0 -2 0 0 0 Z M-60.09765625 144.453125 C-76.20729824 166.02085924 -79.84459419 192.20707233 -76.5390625 218.5390625 C-75.87749276 222.1115391 -75.03032236 225.51634404 -74 229 C-73.80132324 229.70769531 -73.60264648 230.41539062 -73.39794922 231.14453125 C-67.70045308 251.18606073 -56.98913922 268.40060054 -38.69140625 279.08984375 C-25.73592485 286.10696259 -12.37811793 287.05420358 2.0625 287.5625 C3.79016602 287.62727539 3.79016602 287.62727539 5.55273438 287.69335938 C8.36839491 287.79850852 11.18412976 287.90065393 14 288 C14.67126129 290.4363189 15.33716354 292.87388883 16 295.3125 C16.19078125 296.00279297 16.3815625 296.69308594 16.578125 297.40429688 C17.37716184 300.35787949 18 302.92559219 18 306 C16.61941406 306.67482422 16.61941406 306.67482422 15.2109375 307.36328125 C5.52690848 312.23109232 -2.76388945 317.9775009 -11 325 C-12.48693359 326.25683594 -12.48693359 326.25683594 -14.00390625 327.5390625 C-20.41880638 333.15990684 -25.85427896 339.20764822 -31 346 C-31.4007373 346.52577637 -31.80147461 347.05155273 -32.21435547 347.59326172 C-45.51274741 365.17040218 -54.42583475 383.63236653 -60 405 C-60.26554687 405.98355469 -60.53109375 406.96710938 -60.8046875 407.98046875 C-61.58919388 410.97695961 -62.30929414 413.98052082 -63 417 C-63.24621094 418.0725 -63.49242187 419.145 -63.74609375 420.25 C-69.01187061 445.56938305 -69.48120847 471.33911835 -69.46883965 497.08605433 C-69.46871742 500.47319431 -69.477379 503.86029381 -69.48561716 507.2474221 C-69.50462624 515.24570654 -69.50781441 523.24388671 -69.50097656 531.2421875 C-69.49431075 539.4234673 -69.51735401 547.6042992 -69.55429029 555.78548825 C-69.58517271 562.89040671 -69.59632866 569.99518214 -69.59245348 577.1001662 C-69.5904098 581.30911541 -69.59549279 585.517713 -69.62034607 589.72659683 C-69.76126061 615.61543993 -69.44169644 642.01657259 -50.25 661.82421875 C-49.5075 662.54222656 -48.765 663.26023437 -48 664 C-47.34 664.64582031 -46.68 665.29164063 -46 665.95703125 C-38.13571497 673.23466599 -29.22034836 677.92569735 -19 681 C-18.05640625 681.30035156 -17.1128125 681.60070312 -16.140625 681.91015625 C6.12521183 687.86432903 31.39733862 684.96224035 52 675 C55.5684256 672.91474718 58.78925538 670.59733213 62 668 C62.77988281 667.39414062 63.55976562 666.78828125 64.36328125 666.1640625 C70.34966306 661.23410101 74.14218562 655.67543273 78 649 C78.38929688 648.40574219 78.77859375 647.81148437 79.1796875 647.19921875 C87.93225467 633.52757313 88.31841256 615.33953737 88.22705078 599.62915039 C88.22648454 598.26734933 88.22680737 596.90554766 88.22793579 595.54374695 C88.22850201 591.90006773 88.21686839 588.25652426 88.20278788 584.61287618 C88.19015647 580.78525461 88.18910036 576.95762882 88.18673706 573.12998962 C88.18055833 565.90560231 88.16419715 558.68127663 88.14403808 551.45691627 C88.12156577 543.22215098 88.11065736 534.98738251 88.10064721 526.75259411 C88.07982707 509.83502729 88.04472244 492.91752019 88 476 C93.05787247 476.10547293 98.11545182 476.21965172 103.17295837 476.34141541 C104.88846167 476.38154878 106.60401944 476.41942692 108.31962585 476.45487976 C140.22167553 477.11942101 169.41883994 485.29296129 192.5546875 508.5703125 C204.33071559 521.74038752 211.3263185 538.12964969 216 555 C216.30421875 556.09699219 216.6084375 557.19398438 216.921875 558.32421875 C220.30129101 572.34189841 221.38913698 587.064401 222.52734375 601.40625 C222.64903931 602.93100952 222.64903931 602.93100952 222.77319336 604.48657227 C222.91888236 606.38209754 223.054662 608.278425 223.17797852 610.17553711 C224.85615914 632.60326707 235.711983 652.8338311 252.39990234 667.67041016 C270.98079328 683.11007022 294.76247708 685.43544233 318 684 C340.12214281 681.95613026 358.97150694 673.32863374 373.87890625 656.93359375 C387.11730837 640.37694985 390.40735132 619.78359543 390.25 599.25 C390.24723053 598.54245575 390.24446106 597.8349115 390.24160767 597.10592651 C390.19487365 586.93329677 389.8005638 577.04289623 388 567 C387.77789184 565.60188758 387.5579411 564.20343119 387.33984375 562.8046875 C383.21309059 537.07808726 374.49591483 511.78825049 357 492 C355.91912109 490.75669922 355.91912109 490.75669922 354.81640625 489.48828125 C352.57974955 486.95702159 350.30146091 484.47238115 348 482 C346.98873047 480.89011719 346.98873047 480.89011719 345.95703125 479.7578125 C328.43087382 461.27807427 304.36895965 449.44280426 280 443 C279.34 443 278.68 443 278 443 C278 438.05 278 433.1 278 428 C279.876875 427.9175 281.75375 427.835 283.6875 427.75 C302.84765891 426.1653252 322.54206715 416.4773941 337 404 C337.87785156 403.25878906 338.75570313 402.51757812 339.66015625 401.75390625 C366.47322176 378.41885527 381.09074311 344.06377199 384 309 C384.15115872 305.45285923 384.18703365 301.90946151 384.203125 298.359375 C384.20882507 297.35650452 384.21452515 296.35363403 384.22039795 295.32037354 C384.22979966 293.20252519 384.23636259 291.08466254 384.24023438 288.96679688 C384.24984668 285.80050427 384.28087815 282.6348882 384.3125 279.46875 C384.52648655 238.14310263 373.22489244 197.28320599 344.25 166.75 C333.1846926 156.23265511 320.55517794 147.92433435 307 141 C306.38833984 140.68724121 305.77667969 140.37448242 305.14648438 140.05224609 C275.95475653 125.35447764 242.73724311 117.84587664 210.05953979 117.85282898 C208.63645545 117.84731395 208.63645545 117.84731395 207.18462193 117.8416875 C204.0330691 117.8307507 200.88154934 117.82682402 197.72998047 117.82299805 C195.45892739 117.81672593 193.18787532 117.81007848 190.91682434 117.80308533 C183.48361921 117.78213511 176.05041407 117.77169281 168.6171875 117.76171875 C166.05007034 117.7576681 163.48295328 117.75355109 160.91583633 117.74936867 C150.23369274 117.73251494 139.55155247 117.71787956 128.86939812 117.71061993 C126.10498936 117.70871048 123.3405806 117.70679007 120.57617188 117.70483398 C119.88921062 117.70435024 119.20224936 117.7038665 118.49447109 117.7033681 C107.37373901 117.695073 96.25311466 117.6697378 85.13242958 117.63725331 C73.68274098 117.60408353 62.23313267 117.58649451 50.78339112 117.58297569 C44.367748 117.5806323 37.95227564 117.57176393 31.53667831 117.54651451 C25.49714459 117.5231268 19.4578928 117.51904352 13.41832542 117.52927589 C11.2125994 117.52976873 9.00685896 117.52352364 6.80117607 117.50971985 C-19.6544654 117.3535295 -42.28164459 123.32165922 -60.09765625 144.453125 Z " fill="#F9F38C" transform="translate(505,153)"/>
<path d="M0 0 C1.35908721 2.71817442 0.3911568 4.12790702 -0.45751953 6.90869141 C-7.04187717 32.29195313 -1.84834705 65.04276169 11.37109375 87.546875 C14.29615703 91.95200628 17.5247643 96.01852918 21 100 C21.53109375 100.62648438 22.0621875 101.25296875 22.609375 101.8984375 C30.92512303 110.99635985 43.51063333 117.86607602 55.65625 119.7734375 C68.75567413 121.84112521 78.97112079 125.49931675 90 133 C90.33 133.66 90.66 134.32 91 135 C89.96101563 135.6290625 88.92203125 136.258125 87.8515625 136.90625 C79.81209078 141.81936781 72.12418504 146.79803956 65 153 C64.05898438 153.79664063 63.11796875 154.59328125 62.1484375 155.4140625 C29.19484467 183.9420141 12.58836343 227.58219369 8 270 C7.87141602 271.13147461 7.74283203 272.26294922 7.61035156 273.42871094 C6.05214434 287.51123785 4.96169427 301.5472553 4.73046875 315.71875 C4.7136908 316.72491364 4.69691284 317.73107727 4.67962646 318.76773071 C4.60459466 323.71582622 4.55920183 328.66218812 4.55419922 333.61083984 C4.48083025 345.43392735 3.08927726 356.30488258 0.44845581 367.8213501 C-0.24614699 371.19581039 -0.62739955 374.57616982 -1 378 C-4.0746802 376.65482741 -5.87571902 375.27093546 -8 372.6875 C-11.19828095 368.90584162 -14.50435206 365.25208155 -17.875 361.625 C-22.20073175 356.95859094 -26.48266228 352.25717486 -30.73046875 347.51953125 C-35.11871554 342.64789755 -39.56373809 337.82787676 -44 333 C-49.92769564 326.54903192 -55.8359372 320.08281284 -61.6875 313.5625 C-64.27615036 310.69399555 -66.88589108 307.84527019 -69.5 305 C-72.89219324 301.30700957 -76.27109943 297.60285464 -79.625 293.875 C-80.36878906 293.08480469 -81.11257813 292.29460937 -81.87890625 291.48046875 C-84 289 -84 289 -85.71484375 286.05078125 C-87.91985094 282.63371936 -89.38966845 280.92758762 -93 279 C-99.89701138 278.39453152 -106.87433767 280.10268089 -113.61816406 281.38134766 C-119.09452964 282.38316042 -124.60727785 283.08074213 -130.125 283.8125 C-132.56260264 284.15160672 -135.00009659 284.49149541 -137.4375 284.83203125 C-143.99546366 285.73970928 -150.55925571 286.59982942 -157.125 287.44921875 C-158.10152527 287.57556198 -159.07805054 287.70190521 -160.08416748 287.83207703 C-164.10262067 288.35156189 -168.12113238 288.870589 -172.13977051 289.38864136 C-185.13036623 291.06562891 -198.10206706 292.8048084 -211.03564453 294.8828125 C-216.4369421 295.72850242 -221.53169819 296.16805656 -227 296 C-225.73537866 291.89111247 -224.20563057 288.28425152 -222.09375 284.54296875 C-221.52011719 283.52203125 -220.94648438 282.50109375 -220.35546875 281.44921875 C-219.74316406 280.37285156 -219.13085938 279.29648437 -218.5 278.1875 C-217.86707031 277.06601562 -217.23414063 275.94453125 -216.58203125 274.7890625 C-212.73441746 267.99135131 -208.81781664 261.23873572 -204.82568359 254.52514648 C-201.1541284 248.32503945 -197.63610629 242.04205829 -194.125 235.75 C-189.75587232 227.92210233 -185.37814916 220.1001007 -180.9375 212.3125 C-180.22484985 211.05808105 -180.22484985 211.05808105 -179.49780273 209.77832031 C-176.84476924 205.13383764 -174.12319329 200.54103507 -171.328125 195.98046875 C-170.72105713 194.98168701 -170.11398926 193.98290527 -169.48852539 192.95385742 C-168.31287182 191.02567083 -167.12505338 189.10483409 -165.92358398 187.19262695 C-165.39579346 186.32468506 -164.86800293 185.45674316 -164.32421875 184.5625 C-163.6139856 183.41974609 -163.6139856 183.41974609 -162.8894043 182.25390625 C-161.38925577 178.45226716 -162.6318289 175.86668042 -164.17651367 172.23046875 C-164.66869385 171.22628906 -165.16087402 170.22210938 -165.66796875 169.1875 C-166.50207275 167.47385254 -166.50207275 167.47385254 -167.35302734 165.72558594 C-167.96446999 164.4837002 -168.57596229 163.24183892 -169.1875 162 C-169.82303697 160.6985392 -170.45795453 159.39677576 -171.09228516 158.09472656 C-172.40891361 155.39335965 -173.72819011 152.69331049 -175.04931641 149.99414062 C-178.0169639 143.92519257 -180.94348087 137.83646437 -183.875 131.75 C-189.25888946 120.59146716 -194.66276182 109.44268815 -200.07122803 98.29605103 C-206.74297338 84.5445379 -213.37943018 70.77622207 -220 57 C-216.7448681 55.91495603 -215.70123352 56.07610418 -212.44140625 56.78515625 C-211.51392578 56.98278564 -210.58644531 57.18041504 -209.63085938 57.3840332 C-208.11202148 57.71987427 -208.11202148 57.71987427 -206.5625 58.0625 C-205.49193359 58.29219482 -204.42136719 58.52188965 -203.31835938 58.75854492 C-199.87723017 59.49816877 -196.43850884 60.24829661 -193 61 C-188.6674964 61.94136407 -184.33405152 62.87828945 -180 63.8125 C-178.2991626 64.17988281 -178.2991626 64.17988281 -176.56396484 64.5546875 C-165.09062533 67.01492437 -153.58325229 69.29780692 -142.07363892 71.58102417 C-131.06179406 73.76659007 -120.06512575 75.99505348 -109.11010742 78.45336914 C-97.67013408 81.3132264 -97.67013408 81.3132264 -86 82 C-83.95212897 80.52020346 -83.95212897 80.52020346 -82.1875 78.4375 C-79.66513405 75.67849417 -77.06919085 73.15794399 -74.23828125 70.72265625 C-69.94836475 67.01209499 -65.96995913 63.04749739 -62 59 C-58.11716293 55.04132627 -54.23659338 51.14941662 -50.03125 47.53125 C-45.62796818 43.73857952 -41.57013076 39.64426794 -37.5 35.5 C-32.81094152 30.72553062 -28.06887764 26.13733613 -22.99560547 21.77294922 C-19.44131122 18.61521924 -16.14103967 15.20474378 -12.8125 11.8125 C-4.64194577 3.48821944 -4.64194577 3.48821944 0 0 Z " fill="#F2E2E3" transform="translate(426,322)"/>
<path d="M0 0 C0.66 0 1.32 0 2 0 C2.88021369 6.71162938 3.11381955 13.23405981 3 20 C1.98292969 20.51046875 1.98292969 20.51046875 0.9453125 21.03125 C-6.0484902 24.67345196 -12.06271239 28.81892458 -18 34 C-18.92232422 34.77923828 -18.92232422 34.77923828 -19.86328125 35.57421875 C-28.3685495 43.33649805 -33.77296709 53.88081408 -37.90234375 64.44921875 C-40.07106322 69.48898321 -43.54208523 72.6412303 -47.66796875 76.16796875 C-51.98047827 79.92294887 -55.99762608 83.91945472 -60 88 C-63.88283707 91.95867373 -67.76340662 95.85058338 -71.96875 99.46875 C-76.37203182 103.26142048 -80.42986924 107.35573206 -84.5 111.5 C-89.1933195 116.27880802 -93.93991978 120.87155094 -99.01757812 125.24023438 C-102.50271827 128.33394006 -105.73807426 131.67436478 -109 135 C-113.62639671 139.71675602 -118.31633573 144.25502862 -123.3359375 148.5546875 C-124.60166464 149.65402798 -125.8145434 150.8145434 -127 152 C-134.33836184 152.20877795 -141.9642353 150.16935327 -149.125 148.75 C-150.26026123 148.52820068 -151.39552246 148.30640137 -152.56518555 148.07788086 C-163.0079126 146.02558233 -173.42558452 143.85725807 -183.83935547 141.66357422 C-189.51538333 140.47189774 -195.19529052 139.29898152 -200.875 138.125 C-202.06367676 137.87919189 -203.25235352 137.63338379 -204.47705078 137.38012695 C-213.631132 135.48791212 -222.78591945 133.59912033 -231.94122314 131.71282959 C-233.41857643 131.40843131 -234.89591254 131.10394963 -236.37322998 130.79937744 C-238.45058076 130.37115762 -240.52801334 129.94333687 -242.60546875 129.515625 C-244.38667114 129.14872559 -244.38667114 129.14872559 -246.20385742 128.77441406 C-250.80003478 127.8367927 -255.39966782 126.91698554 -260 126 C-259.71122482 126.58785782 -259.42244965 127.17571564 -259.12492371 127.78138733 C-256.056219 134.02893184 -252.98921406 140.27730884 -249.9230957 146.52612305 C-248.78614146 148.84273329 -247.64878659 151.15914696 -246.51098633 153.4753418 C-240.2347215 166.25251903 -233.9965164 179.04544057 -227.87062073 191.89546204 C-225.0646843 197.78037125 -222.23777437 203.6543413 -219.3828125 209.515625 C-219.02546524 210.24937851 -218.66811798 210.98313202 -218.29994202 211.73912048 C-216.87984591 214.65331396 -215.45854069 217.56691466 -214.03613281 220.47998047 C-211.97792568 224.69681755 -209.92903039 228.91786979 -207.89562988 233.14672852 C-207.05530545 234.88555986 -206.20145802 236.61783757 -205.34667969 238.34960938 C-204.87907227 239.32220703 -204.41146484 240.29480469 -203.9296875 241.296875 C-203.52733887 242.12026367 -203.12499023 242.94365234 -202.71044922 243.79199219 C-201.87700165 246.38226704 -202.04162132 247.48349751 -203 250 C-204.34901448 252.62161419 -205.73624163 255.18598807 -207.1875 257.75 C-207.62747314 258.53511963 -208.06744629 259.32023926 -208.52075195 260.12915039 C-212.74691336 267.63253501 -217.11361658 275.05327752 -221.47338867 282.47949219 C-226.584901 291.21700287 -231.49763655 300.05705073 -236.38671875 308.92041016 C-241.09873394 317.43894177 -245.97306963 325.85097422 -250.91064453 334.24023438 C-256.84545805 344.36362721 -262.451531 354.66093172 -268 365 C-266.39789673 364.7666394 -266.39789673 364.7666394 -264.76342773 364.52856445 C-244.39024905 361.56630195 -224.01285301 358.69556556 -203.58505249 356.13476562 C-192.68003104 354.76520085 -181.80259118 353.27152128 -170.93426514 351.63607788 C-168.783873 351.31751796 -166.63201549 351.01245925 -164.47900391 350.7121582 C-158.66796203 349.89527149 -152.93041651 349.04649895 -147.2265625 347.64453125 C-138.30213908 345.63545397 -138.30213908 345.63545397 -134 347 C-128.14998485 350.85712399 -123.8715629 356.37587467 -119.64208984 361.87841797 C-117.62343767 364.48651898 -115.43374772 366.89927457 -113.1875 369.3125 C-112.51074219 370.07175781 -111.83398438 370.83101562 -111.13671875 371.61328125 C-108.61457763 374.43051749 -106.05910993 377.21641443 -103.5 380 C-100.14696739 383.64917763 -96.81001538 387.31169714 -93.5 391 C-88.37680716 396.70661694 -83.18880061 402.35315354 -78 408 C-72.81119939 413.64684646 -67.62319284 419.29338306 -62.5 425 C-59.09952163 428.78578437 -55.68292403 432.5561511 -52.25 436.3125 C-51.36828125 437.27800781 -50.4865625 438.24351562 -49.578125 439.23828125 C-47.10451051 441.88804708 -44.57883679 444.45363058 -42 447 C-42.061875 445.34484375 -42.061875 445.34484375 -42.125 443.65625 C-42.125 438.45495957 -41.09002707 433.56715286 -40 428.5 C-39.80921875 427.5821875 -39.6184375 426.664375 -39.421875 425.71875 C-38.95496547 423.47758423 -38.48089308 421.23819917 -38 419 C-37.67 419 -37.34 419 -37 419 C-36.99191315 420.07502777 -36.98382629 421.15005554 -36.97549438 422.25765991 C-36.89749098 432.46515537 -36.80962288 442.67252635 -36.71247292 452.87985802 C-36.66285249 458.12560844 -36.61652405 463.37134198 -36.578125 468.6171875 C-36.5408337 473.69422501 -36.4943651 478.77110808 -36.44193649 483.84801102 C-36.42362229 485.77011997 -36.40843294 487.69226172 -36.39665604 489.61442184 C-36.27085247 509.46583225 -35.8941253 530.29585211 -26.63671875 548.36328125 C-26.42660156 548.90339844 -26.21648437 549.44351563 -26 550 C-26.33 550.66 -26.66 551.32 -27 552 C-31.17377227 547.94040387 -35.12397797 543.76775813 -38.92578125 539.359375 C-41.52629095 536.40135643 -44.19731019 533.51307375 -46.875 530.625 C-51.19764932 525.96073704 -55.47816757 521.26305715 -59.72265625 516.52734375 C-62.29809775 513.66917797 -64.89685764 510.83289739 -67.5 508 C-71.59169207 503.54667383 -75.64822977 499.06340112 -79.6875 494.5625 C-82.27615003 491.69399591 -84.88585146 488.8452335 -87.5 486 C-91.59166107 481.54664513 -95.64822946 477.06340146 -99.6875 472.5625 C-102.27615003 469.69399591 -104.88585146 466.8452335 -107.5 464 C-111.59166107 459.54664513 -115.64822946 455.06340146 -119.6875 450.5625 C-122.27615052 447.69399537 -124.88591091 444.84528854 -127.5 442 C-130.91183695 438.28515168 -134.31169328 434.56016839 -137.6875 430.8125 C-138.42226563 430.01972656 -139.15703125 429.22695313 -139.9140625 428.41015625 C-142 426 -142 426 -143.7734375 423.30859375 C-145.71179589 420.53648731 -147.16155292 418.85347568 -150 417 C-153.49956181 416.91494032 -153.49956181 416.91494032 -157.3203125 417.6484375 C-158.76072523 417.86848324 -160.20123899 418.08786847 -161.6418457 418.30664062 C-162.37029694 418.42450928 -163.09874817 418.54237793 -163.84927368 418.66381836 C-167.09401333 419.17100604 -170.35181601 419.54701118 -173.61328125 419.9296875 C-187.36454203 421.61322663 -201.07801877 423.41024576 -214.7746582 425.49951172 C-223.49953665 426.81514252 -232.24225813 427.93247163 -241 429 C-250.70875265 430.18395912 -260.39306349 431.46001957 -270.0625 432.9375 C-285.43173182 435.28303355 -300.85396903 437.20968935 -316.27940369 439.1431427 C-319.95437076 439.6055535 -323.62641313 440.08146315 -327.29492188 440.59277344 C-328.31014923 440.733246 -328.31014923 440.733246 -329.34588623 440.8765564 C-331.16173633 441.12960518 -332.97689499 441.38760212 -334.79199219 441.64599609 C-337.89200894 441.98808318 -340.88424424 442.06424846 -344 442 C-342.58265904 438.20688446 -340.83462872 434.79481828 -338.8125 431.2890625 C-338.19632813 430.20882813 -337.58015625 429.12859375 -336.9453125 428.015625 C-335.6518083 425.76108354 -334.35494798 423.50846418 -333.0546875 421.2578125 C-329.96604297 415.83006897 -327.69169582 411.01799988 -326 405 C-324.08084373 401.27723475 -321.91283774 397.71026559 -319.75 394.125 C-318.4720028 391.97251403 -317.19602094 389.81883043 -315.921875 387.6640625 C-315.26896484 386.56094727 -314.61605469 385.45783203 -313.94335938 384.32128906 C-310.88321466 379.09136335 -307.94082682 373.79765375 -305 368.5 C-299.86477835 359.2700921 -294.59785965 350.12760471 -289.25 341.01953125 C-284.47721687 332.86957791 -279.85931739 324.63919588 -275.26757812 316.38623047 C-270.55327156 307.93468256 -265.70645464 299.5657005 -260.79296875 291.22851562 C-259.71703321 289.39891163 -258.64780835 287.56534165 -257.5859375 285.72753906 C-256.48900919 283.8410115 -255.36747133 281.96865783 -254.2265625 280.10839844 C-250.98909849 274.66912721 -250.98909849 274.66912721 -249.7578125 268.5625 C-251.65511402 263.12118244 -254.21587927 258.10483433 -256.875 253 C-258.07328158 250.65319418 -259.26986747 248.30552183 -260.46484375 245.95703125 C-261.06409668 244.78350098 -261.66334961 243.6099707 -262.28076172 242.40087891 C-264.74217233 237.53188574 -267.09985316 232.61683811 -269.4375 227.6875 C-270.335779 225.79810172 -271.23422003 223.90878047 -272.1328125 222.01953125 C-272.59333008 221.05096191 -273.05384766 220.08239258 -273.52832031 219.08447266 C-276.2698963 213.33844229 -279.04227791 207.6072588 -281.8125 201.875 C-282.40601948 200.64640958 -282.9995253 199.41781255 -283.59301758 198.18920898 C-285.09408862 195.08209351 -286.59555764 191.97517051 -288.09710693 188.86828613 C-290.77395858 183.329286 -293.44980639 177.7898011 -296.125 172.25 C-296.56255112 171.34396027 -296.56255112 171.34396027 -297.00894165 170.4196167 C-301.01730668 162.11850893 -305.01399998 153.81187089 -309 145.5 C-313.1979277 136.74655651 -317.40624329 127.99818558 -321.62524414 119.25488281 C-322.24290105 117.97484156 -322.86041747 116.6947325 -323.4777832 115.41455078 C-324.34020196 113.6264078 -325.20329247 111.83858885 -326.06640625 110.05078125 C-326.56084229 109.02637939 -327.05527832 108.00197754 -327.56469727 106.9465332 C-328.57774636 104.86684456 -329.62022939 102.8013696 -330.68334961 100.74682617 C-332 98 -332 98 -332 96 C-325.29221378 96.77397533 -318.65425699 97.85768588 -312 99 C-312.495 98.05125 -312.99 97.1025 -313.5 96.125 C-315 93 -315 93 -315 91 C-307.76484202 91.31253382 -300.94055855 92.62496246 -293.93212891 94.35327148 C-288.46077837 95.6895459 -282.97711398 96.79926131 -277.4375 97.8125 C-268.2454055 99.50550625 -259.12353495 101.47651497 -250 103.5 C-241.18765929 105.45346575 -232.37998521 107.3736818 -223.5 109 C-214.61998359 110.62632391 -205.81249311 112.54713959 -197 114.5 C-185.44369927 117.05995175 -173.87136853 119.43709027 -162.22949219 121.578125 C-160.01468464 121.9972213 -157.80801035 122.44529016 -155.6015625 122.90625 C-154.57204468 123.12039551 -154.57204468 123.12039551 -153.52172852 123.33886719 C-151.72318739 123.71628068 -149.92597646 124.10001869 -148.12890625 124.484375 C-142.16810533 125.59015485 -142.16810533 125.59015485 -136.71875 123.5234375 C-135.9865625 122.81445312 -135.254375 122.10546875 -134.5 121.375 C-133.64664063 120.5603125 -132.79328125 119.745625 -131.9140625 118.90625 C-130.94028447 117.93993647 -129.96911405 116.97099096 -129 116 C-128.44151367 115.443125 -127.88302734 114.88625 -127.30761719 114.3125 C-124.87621659 111.88509185 -122.4485423 109.45416154 -120.03100586 107.01293945 C-117.12402787 104.08458371 -114.21960201 101.22437032 -111.0625 98.5625 C-106.97378827 95.10961385 -103.26265524 91.29922582 -99.5 87.5 C-95.19812358 83.15635272 -90.89692097 78.9395124 -86.21875 75 C-82.84987939 71.96327156 -79.69090341 68.72188306 -76.5 65.5 C-72.19812143 61.15635562 -67.89692101 56.93951243 -63.21875 53 C-59.84987939 49.96327156 -56.69090341 46.72188306 -53.5 43.5 C-49.19812143 39.15635562 -44.89692101 34.93951243 -40.21875 31 C-36.84986604 27.96325953 -33.6910883 24.72171965 -30.5 21.5 C-23.97092569 14.91404664 -17.3143926 8.71436922 -10 3 C-10 4.98 -10 6.96 -10 9 C-8.70756532 7.8758824 -7.41607925 6.75067408 -6.125 5.625 C-5.40570313 4.99851562 -4.68640625 4.37203125 -3.9453125 3.7265625 C-2.5923402 2.52573166 -1.2791655 1.2791655 0 0 Z " fill="#ED83B6" transform="translate(467,253)"/>
<path d="M0 0 C0.92825089 -0.00525696 1.85650177 -0.01051392 2.81288147 -0.01593018 C5.8592348 -0.02905138 8.90505801 -0.02041342 11.95141602 -0.01025391 C14.09261677 -0.01227844 16.23381685 -0.01519302 18.37501526 -0.01895142 C22.85945205 -0.02336547 27.34370917 -0.01697899 31.828125 -0.00292969 C37.52653996 0.01406812 43.22452797 0.00437491 48.9229269 -0.01364708 C53.34753009 -0.02458981 57.77203546 -0.02098942 62.19664192 -0.0132637 C64.29461787 -0.01128565 66.39260319 -0.013635 68.49056816 -0.02070236 C102.14373523 -0.10912489 102.14373523 -0.10912489 114.95532227 7.20068359 C115.61338867 7.55614258 116.27145508 7.91160156 116.94946289 8.27783203 C129.02513909 14.96710521 136.68620265 25.03304879 140.87963867 38.32788086 C142.69829857 45.35377998 142.73007548 52.47972269 142.76782227 59.70068359 C142.77426758 60.88082031 142.78071289 62.06095703 142.78735352 63.27685547 C142.55802347 78.9683227 137.60454871 92.79839665 126.59985352 104.20458984 C110.29012379 119.47617932 87.76411472 119.70541629 66.70141602 119.68896484 C64.61499447 119.69285957 62.5285737 119.69719582 60.44215393 119.70195007 C56.08754902 119.70937646 51.73302524 119.70914629 47.37841797 119.70385742 C41.8217852 119.69805527 36.26548495 119.71502946 30.70890713 119.7382021 C26.40641873 119.7529891 22.10400963 119.75380459 17.80150032 119.75069237 C15.7535543 119.75120267 13.7056035 119.75638527 11.65768242 119.76650429 C-13.37442334 119.87507165 -13.37442334 119.87507165 -21.16967773 114.20068359 C-27.81240113 106.90988963 -28.87221527 99.25628962 -28.90917969 89.61376953 C-28.91575089 88.85842422 -28.92232208 88.10307892 -28.92909241 87.32484436 C-28.94870075 84.84074786 -28.96045973 82.35671145 -28.97045898 79.87255859 C-28.97453451 79.01897011 -28.97861004 78.16538162 -28.98280907 77.28592682 C-29.00361626 72.76809435 -29.01794127 68.25029178 -29.02734375 63.73242188 C-29.0383999 59.08792714 -29.07280595 54.44391253 -29.11251545 49.79958725 C-29.13876578 46.20828411 -29.14704299 42.61709405 -29.15062523 39.02570343 C-29.15546905 37.31462611 -29.16701949 35.60355309 -29.18566322 33.8925705 C-29.3942366 13.48392235 -29.3942366 13.48392235 -22.04467773 5.45068359 C-14.99411645 1.06071147 -8.19606581 -0.05816301 0 0 Z " fill="#F1E4E5" transform="translate(617.732177734375,422.61181640625)"/>
<path d="M0 0 C3.18424455 -0.34651175 5.3564704 -0.07135889 7.93945312 1.84472656 C10.05693791 3.92156865 11.99477401 6.078443 13.91210938 8.34082031 C14.42902344 8.92992187 14.9459375 9.51902344 15.47851562 10.12597656 C16.56967727 11.3702837 17.6537435 12.62083237 18.73242188 13.87597656 C21.72554136 17.26066903 24.82034482 20.54635013 27.91210938 23.84082031 C32.04592159 28.24882491 36.13464463 32.67310748 40.07617188 37.25488281 C42.63702825 40.16445154 45.27622954 42.99927598 47.91210938 45.84082031 C51.12374288 49.30365399 54.32313891 52.76730546 57.41210938 56.34082031 C60.96893976 60.45286324 64.66794621 64.42851651 68.36254883 68.41625977 C72.92821322 73.34746289 77.42963263 78.3338856 81.91210938 83.34082031 C86.7173829 88.70021547 91.54283266 94.03946913 96.41210938 99.34082031 C104.99816634 108.69087817 104.99816634 108.69087817 108.83789062 113.07519531 C110.82866114 115.33799848 110.82866114 115.33799848 112.95507812 117.10644531 C119.03718282 122.67439271 118.87121351 128.88666229 119.46289062 136.65332031 C120.23030858 146.07110443 122.96850785 155.29847532 127.27539062 163.70410156 C127.48550781 164.24421875 127.695625 164.78433594 127.91210938 165.34082031 C127.58210938 166.00082031 127.25210937 166.66082031 126.91210938 167.34082031 C122.73833711 163.28122419 118.78813141 159.10857845 114.98632812 154.70019531 C112.38581842 151.74217675 109.71479919 148.85389406 107.03710938 145.96582031 C102.71446005 141.30155735 98.4339418 136.60387747 94.18945312 131.86816406 C91.61401162 129.00999828 89.01525174 126.1737177 86.41210938 123.34082031 C82.3204173 118.88749414 78.26387961 114.40422143 74.22460938 109.90332031 C71.63595934 107.03481622 69.02625792 104.18605381 66.41210938 101.34082031 C62.3204483 96.88746544 58.26387991 92.40422177 54.22460938 87.90332031 C51.63595934 85.03481622 49.02625792 82.18605381 46.41210938 79.34082031 C42.3204483 74.88746544 38.26387991 70.40422177 34.22460938 65.90332031 C31.63595886 63.03481569 29.02619847 60.18610885 26.41210938 57.34082031 C23.00027242 53.62597199 19.60041609 49.9009887 16.22460938 46.15332031 C15.48984375 45.36054687 14.75507813 44.56777344 13.99804688 43.75097656 C11.91210938 41.34082031 11.91210938 41.34082031 10.13867188 38.64941406 C8.20031348 35.87730763 6.75055646 34.19429599 3.91210938 32.34082031 C0.41254757 32.25576063 0.41254757 32.25576063 -3.40820312 32.98925781 C-4.84861585 33.20930356 -6.28912962 33.42868878 -7.72973633 33.64746094 C-8.45818756 33.76532959 -9.18663879 33.88319824 -9.93716431 34.00463867 C-13.18190395 34.51182635 -16.43970664 34.88783149 -19.70117188 35.27050781 C-33.45243266 36.95404694 -47.16590939 38.75106607 -60.86254883 40.84033203 C-69.58742727 42.15596284 -78.33014875 43.27329194 -87.08789062 44.34082031 C-96.79664328 45.52477943 -106.48095411 46.80083988 -116.15039062 48.27832031 C-131.51962245 50.62385386 -146.94185965 52.55050966 -162.36729431 54.48396301 C-166.04226138 54.94637381 -169.71430376 55.42228346 -173.3828125 55.93359375 C-174.05963074 56.02724213 -174.73644897 56.1208905 -175.43377686 56.21737671 C-177.24962696 56.47042549 -179.06478561 56.72842244 -180.87988281 56.98681641 C-183.97989957 57.32890349 -186.97213486 57.40506878 -190.08789062 57.34082031 C-188.65903254 53.53907598 -186.91740522 50.06756281 -184.93554688 46.52441406 C-184.32388672 45.43064453 -183.71222656 44.336875 -183.08203125 43.20996094 C-182.44458984 42.07751953 -181.80714844 40.94507813 -181.15039062 39.77832031 C-180.2000293 38.07385742 -180.2000293 38.07385742 -179.23046875 36.33496094 C-175.68467886 30.01517769 -175.68467886 30.01517769 -174.08789062 27.34082031 C-173.44811279 26.2165564 -173.44811279 26.2165564 -172.79541016 25.06958008 C-170.26819476 22.51092806 -168.01161839 22.47464561 -164.48242188 21.99707031 C-163.48755768 21.85542702 -163.48755768 21.85542702 -162.47259521 21.71092224 C-160.28382771 21.40388917 -158.0925865 21.12223827 -155.90039062 20.84082031 C-154.36431458 20.63067824 -152.82842739 20.41915152 -151.29272461 20.20629883 C-146.56116963 19.55742674 -141.82548498 18.94383917 -137.08789062 18.34082031 C-136.36625732 18.2488739 -135.64462402 18.15692749 -134.90112305 18.06219482 C-128.81658915 17.28943024 -122.73036764 16.53072929 -116.6418457 15.79003906 C-108.26905037 14.76494644 -99.92659897 13.6125753 -91.58789062 12.34082031 C-81.25548394 10.76500195 -70.90563313 9.42030767 -60.53045654 8.16122437 C-48.13108057 6.65137147 -35.77835103 4.87961424 -23.42944336 3.00317383 C-17.00677381 2.03151977 -10.6013419 1.10596007 -4.12890625 0.53320312 C-2.74729936 0.40297511 -1.36960345 0.22356951 0 0 Z " fill="#EE2A7B" transform="translate(313.087890625,637.6591796875)"/>
<path d="M0 0 C0.92825089 -0.00525696 1.85650177 -0.01051392 2.81288147 -0.01593018 C5.8592348 -0.02905138 8.90505801 -0.02041342 11.95141602 -0.01025391 C14.09261677 -0.01227844 16.23381685 -0.01519302 18.37501526 -0.01895142 C22.85945205 -0.02336547 27.34370917 -0.01697899 31.828125 -0.00292969 C37.52653996 0.01406812 43.22452797 0.00437491 48.9229269 -0.01364708 C53.34753009 -0.02458981 57.77203546 -0.02098942 62.19664192 -0.0132637 C64.29461787 -0.01128565 66.39260319 -0.013635 68.49056816 -0.02070236 C102.14373523 -0.10912489 102.14373523 -0.10912489 114.95532227 7.20068359 C115.61338867 7.55614258 116.27145508 7.91160156 116.94946289 8.27783203 C129.02513909 14.96710521 136.68620265 25.03304879 140.87963867 38.32788086 C142.69829857 45.35377998 142.73007548 52.47972269 142.76782227 59.70068359 C142.77426758 60.88082031 142.78071289 62.06095703 142.78735352 63.27685547 C142.55802347 78.9683227 137.60454871 92.79839665 126.59985352 104.20458984 C110.29012379 119.47617932 87.76411472 119.70541629 66.70141602 119.68896484 C64.61499447 119.69285957 62.5285737 119.69719582 60.44215393 119.70195007 C56.08754902 119.70937646 51.73302524 119.70914629 47.37841797 119.70385742 C41.8217852 119.69805527 36.26548495 119.71502946 30.70890713 119.7382021 C26.40641873 119.7529891 22.10400963 119.75380459 17.80150032 119.75069237 C15.7535543 119.75120267 13.7056035 119.75638527 11.65768242 119.76650429 C-13.37442334 119.87507165 -13.37442334 119.87507165 -21.16967773 114.20068359 C-27.81240113 106.90988963 -28.87221527 99.25628962 -28.90917969 89.61376953 C-28.91575089 88.85842422 -28.92232208 88.10307892 -28.92909241 87.32484436 C-28.94870075 84.84074786 -28.96045973 82.35671145 -28.97045898 79.87255859 C-28.97453451 79.01897011 -28.97861004 78.16538162 -28.98280907 77.28592682 C-29.00361626 72.76809435 -29.01794127 68.25029178 -29.02734375 63.73242188 C-29.0383999 59.08792714 -29.07280595 54.44391253 -29.11251545 49.79958725 C-29.13876578 46.20828411 -29.14704299 42.61709405 -29.15062523 39.02570343 C-29.15546905 37.31462611 -29.16701949 35.60355309 -29.18566322 33.8925705 C-29.3942366 13.48392235 -29.3942366 13.48392235 -22.04467773 5.45068359 C-14.99411645 1.06071147 -8.19606581 -0.05816301 0 0 Z M-20.16967773 10.57568359 C-23.4265571 16.43806646 -23.82843538 21.73036283 -23.73217773 28.38818359 C-22.67812744 28.93007324 -22.67812744 28.93007324 -21.6027832 29.48291016 C-8.711051 36.11845302 4.14442788 42.79896326 16.85327148 49.78027344 C24.21562942 53.8232635 31.61071066 57.80286562 39.01782227 61.76318359 C41.4058939 63.04043238 43.7939023 64.31779935 46.18188477 65.59521484 C47.06897377 66.06970062 47.06897377 66.06970062 47.97398376 66.55377197 C57.32163731 71.55520698 66.65160427 76.58955864 75.98413086 81.61914062 C79.41793656 83.46905558 82.85253179 85.31749992 86.28735352 87.16552734 C88.0244458 88.10029907 88.0244458 88.10029907 89.79663086 89.05395508 C91.99085065 90.23467226 94.18517802 91.41518954 96.37963867 92.59545898 C97.3830127 93.13549561 98.38638672 93.67553223 99.42016602 94.23193359 C100.87592041 95.00923828 100.87592041 95.00923828 102.36108398 95.80224609 C104.35454709 96.88989403 106.32963477 98.01170874 108.2878418 99.16162109 C109.25189941 99.72107422 110.21595703 100.28052734 111.20922852 100.85693359 C112.06331299 101.36675781 112.91739746 101.87658203 113.79736328 102.40185547 C116.78319681 103.59394633 118.24631816 103.38332606 121.26782227 102.38818359 C131.11577032 94.39977101 135.70999755 82.6041759 137.26782227 70.38818359 C138.65446997 51.89234144 137.29591607 36.27475273 125.59594727 21.23974609 C117.95424631 12.71631041 107.79012347 8.39750365 96.68237305 6.71386719 C95.45399814 6.5256392 95.45399814 6.5256392 94.20080757 6.33360863 C84.1395243 4.92435137 74.08761343 4.95434636 63.94750977 4.98974609 C61.86630146 4.98771838 59.78509385 4.98480119 57.70388794 4.98104858 C53.38268135 4.97666783 49.06166295 4.98292399 44.74047852 4.99707031 C39.22082213 5.01426774 33.70160014 5.00422759 28.18195915 4.98635292 C23.90099839 4.97549101 19.62014009 4.97897065 15.33917618 4.9867363 C13.30353874 4.98872607 11.26789176 4.98632239 9.23226547 4.97929764 C6.39084022 4.9716312 3.55011374 4.98335497 0.70874023 5 C-0.11737259 4.99392731 -0.94348541 4.98785461 -1.79463196 4.9815979 C-8.45265066 5.05341519 -15.08362095 6.01127366 -20.16967773 10.57568359 Z " fill="#F9F28C" transform="translate(617.732177734375,422.61181640625)"/>
<path d="M0 0 C1.79959834 0.17643121 3.59828893 0.37379 5.38671875 0.640625 C8.08098639 1.04751204 8.08098639 1.04751204 11.14453125 1.171875 C14.9338468 1.61300603 17.57244264 2.29655528 21 4 C22.59961929 6.38615565 23.70037088 8.37717944 24.828125 10.96875 C25.50891518 12.4272578 26.18991327 13.88566858 26.87109375 15.34399414 C27.21865723 16.10833771 27.5662207 16.87268127 27.92431641 17.66018677 C29.71207116 21.54888811 31.62305368 25.37639735 33.515625 29.21484375 C34.29457161 30.81053121 35.0724708 32.40673036 35.84936523 34.00341797 C36.43752518 35.21212555 36.43752518 35.21212555 37.03756714 36.44525146 C37.43766998 37.26769348 37.83777283 38.0901355 38.25 38.9375 C38.66452423 39.78894592 39.07904846 40.64039185 39.50613403 41.51763916 C45.92202904 54.69684196 52.2985188 67.89413536 58.62158203 81.11816406 C61.0351387 86.16414758 63.45499716 91.20710559 65.875 96.25 C66.36250732 97.26626465 66.85001465 98.2825293 67.35229492 99.32958984 C70.39293148 105.66437313 73.44410217 111.99397217 76.50386047 118.3195343 C78.017254 121.44844819 79.52917541 124.57804994 81.03686523 127.7097168 C83.57134172 132.9740141 86.11028318 138.23489696 88.69921875 143.47265625 C89.44545523 145.00253455 90.19156222 146.53247603 90.9375 148.0625 C91.27362305 148.72830078 91.60974609 149.39410156 91.95605469 150.08007812 C93.63877745 153.56452282 94.24273079 155.34633621 93 159 C91.68696643 161.45395703 90.34747014 163.85378131 88.9375 166.25 C88.56044922 166.8996875 88.18339844 167.549375 87.79492188 168.21875 C86.86765885 169.81505091 85.93441544 171.40787529 85 173 C82 172 82 172 80.90356445 170.29882812 C80.560271 169.55052734 80.21697754 168.80222656 79.86328125 168.03125 C79.45916016 167.16693359 79.05503906 166.30261719 78.63867188 165.41210938 C78.20103516 164.45111328 77.76339844 163.49011719 77.3125 162.5 C76.330796 160.39519431 75.34763501 158.29106778 74.36328125 156.1875 C73.56011475 154.46273437 73.56011475 154.46273437 72.74072266 152.703125 C69.90636011 146.64783138 66.96506116 140.64375005 64.03817749 134.6328125 C62.30355451 131.06923536 60.57333477 127.50352462 58.84375 123.9375 C58.50925339 123.24785156 58.17475677 122.55820312 57.8301239 121.84765625 C54.60078426 115.18465479 51.40866972 108.50412058 48.22265625 101.8203125 C44.18531521 93.36226273 40.09368341 84.93087144 36 76.5 C31.00221785 66.20673755 26.02621616 55.90399467 21.09960938 45.57641602 C17.25436093 37.51980856 13.38038933 29.4772232 9.5 21.4375 C9.19600281 20.80726929 8.89200562 20.17703857 8.57879639 19.52770996 C7.70926668 17.72527014 6.83902029 15.92317611 5.96875 14.12109375 C5.21754883 12.56539673 5.21754883 12.56539673 4.45117188 10.97827148 C3.43199366 8.88658995 2.38372346 6.80895453 1.31445312 4.74243164 C0 2 0 2 0 0 Z " fill="#EE2B7C" transform="translate(135,349)"/>
<path d="M0 0 C4.45251706 1.35757174 8.37187203 3.1254863 12.46484375 5.3359375 C13.06124161 5.65656158 13.65763947 5.97718567 14.27210999 6.30752563 C16.16299696 7.32559686 18.0502135 8.35027279 19.9375 9.375 C21.19964585 10.05510325 22.46201391 10.73479431 23.72460938 11.4140625 C29.52368208 14.53956459 35.30415115 17.68944702 41 21 C39.35 22.32 37.7 23.64 36 25 C36.69150146 25.35304199 37.38300293 25.70608398 38.09545898 26.06982422 C41.21260244 27.66552041 44.3250726 29.27012593 47.4375 30.875 C48.52611328 31.43058594 49.61472656 31.98617187 50.73632812 32.55859375 C51.77080078 33.09355469 52.80527344 33.62851562 53.87109375 34.1796875 C54.82943115 34.67194824 55.78776855 35.16420898 56.77514648 35.67138672 C59 37 59 37 60 39 C54.20168815 39.07467117 48.40366194 39.12884674 42.60498047 39.16479492 C40.63618081 39.17979561 38.66741407 39.20020283 36.69873047 39.22631836 C33.85375802 39.26308815 31.00923087 39.27981387 28.1640625 39.29296875 C27.29697662 39.30845261 26.42989075 39.32393646 25.53652954 39.33988953 C18.179276 39.3418739 11.0685685 38.2851042 5.0625 33.8125 C-0.26528018 26.54734521 -0.39984139 19.70055214 -0.1875 11 C-0.17396484 9.93910156 -0.16042969 8.87820313 -0.14648438 7.78515625 C-0.11140879 5.18956313 -0.06225844 2.59505933 0 0 Z " fill="#ED84B6" transform="translate(594,498)"/>
<path d="M0 0 C0.73682007 0.57790283 0.73682007 0.57790283 1.48852539 1.16748047 C5.95453556 4.60369252 10.39866873 7.60203816 15.4375 10.125 C16.45251587 10.63365601 16.45251587 10.63365601 17.48803711 11.15258789 C25.89495403 15.16180329 35.13026668 17.50245101 44.41015625 18.2890625 C49.30433381 19.25831203 53.08508792 21.45880688 57.375 23.9375 C58.60283203 24.62102539 58.60283203 24.62102539 59.85546875 25.31835938 C65.85925752 28.71851504 65.85925752 28.71851504 67 31 C65.89140625 31.68707031 64.7828125 32.37414062 63.640625 33.08203125 C62.17702344 33.99209119 60.71348509 34.90225278 59.25 35.8125 C58.52039063 36.26431641 57.79078125 36.71613281 57.0390625 37.18164062 C55.97558594 37.84389648 55.97558594 37.84389648 54.890625 38.51953125 C54.20291016 38.94443848 53.51519531 39.3693457 52.80664062 39.80712891 C50.86412129 41.02293619 50.86412129 41.02293619 48.859375 42.94921875 C47 44 47 44 44.39453125 43.53515625 C38.66999107 40.94626754 33.22883824 37.87873871 27.76660156 34.78100586 C23.20146517 32.21321083 18.74923008 29.8079297 13.84765625 27.9453125 C4.80227212 24.35107064 4.80227212 24.35107064 2 21 C-0.48348587 14.31750644 -0.33975199 7.03661991 0 0 Z " fill="#ED85B6" transform="translate(450,426)"/>
<path d="M0 0 C0.89025879 0.49749756 1.78051758 0.99499512 2.69775391 1.50756836 C3.67099609 2.04575195 4.64423828 2.58393555 5.64697266 3.13842773 C6.64599609 3.70239258 7.64501953 4.26635742 8.67431641 4.84741211 C9.69654297 5.41524414 10.71876953 5.98307617 11.77197266 6.56811523 C14.2855998 7.96587986 16.79438668 9.37163851 19.29931641 10.78491211 C19.29931641 11.11491211 19.29931641 11.44491211 19.29931641 11.78491211 C13.4643679 11.834581 7.62954419 11.87075864 1.79443359 11.89477539 C-0.18801011 11.90479426 -2.17043918 11.91841311 -4.15283203 11.93579102 C-7.01256943 11.96022093 -9.87211038 11.9714366 -12.73193359 11.98022461 C-13.60934204 11.99054718 -14.48675049 12.00086975 -15.39074707 12.01150513 C-20.83408731 12.01248372 -25.4716736 11.31445046 -30.70068359 9.78491211 C-30.70068359 9.12491211 -30.70068359 8.46491211 -30.70068359 7.78491211 C-27.17080204 6.07192087 -23.62522627 4.39423328 -20.07568359 2.72241211 C-18.57714844 1.99441406 -18.57714844 1.99441406 -17.04833984 1.25170898 C-16.07509766 0.79731445 -15.10185547 0.34291992 -14.09912109 -0.12524414 C-13.2088623 -0.54942627 -12.31860352 -0.9736084 -11.40136719 -1.41064453 C-7.11091578 -2.68862658 -4.0141423 -1.80603744 0 0 Z " fill="#EE347C" transform="translate(634.70068359375,525.215087890625)"/>
<path d="M0 0 C0.88021369 6.71162938 1.11381955 13.23405981 1 20 C-0.28913487 20.67154933 -1.58140204 21.33708859 -2.875 22 C-3.59429687 22.37125 -4.31359375 22.7425 -5.0546875 23.125 C-7 24 -7 24 -9 24 C-9.34171006 22.62705778 -9.67291117 21.25149882 -10 19.875 C-10.185625 19.10929687 -10.37125 18.34359375 -10.5625 17.5546875 C-11.07944233 14.53611352 -11.34236538 12.05740247 -11 9 C-9.1015625 6.4453125 -9.1015625 6.4453125 -6.625 4.125 C-5.81289063 3.34382813 -5.00078125 2.56265625 -4.1640625 1.7578125 C-2 0 -2 0 0 0 Z " fill="#EE367C" transform="translate(469,253)"/>
</svg>
