<?xml version="1.0" encoding="UTF-8"?>
<svg version="1.1" xmlns="http://www.w3.org/2000/svg" width="199" height="180">
<path d="M0 0 C1.02351562 0.5465625 2.04703125 1.093125 3.1015625 1.65625 C9.96203363 5.47727189 16.10050857 9.82209926 22 15 C22.74894531 15.65355469 23.49789062 16.30710937 24.26953125 16.98046875 C34.82737514 26.83568905 42.21801133 39.45892317 47 53 C47.50853516 54.41152344 47.50853516 54.41152344 48.02734375 55.8515625 C54.24650953 77.1170971 50.6245444 101.06338796 40.19921875 120.2421875 C32.5195797 133.69951491 22.03326345 144.68744614 9 153 C8.23300781 153.51175781 7.46601563 154.02351562 6.67578125 154.55078125 C-0.42853241 159.09519346 -8.02998231 162.3202927 -16 165 C-16.63808594 165.21462891 -17.27617187 165.42925781 -17.93359375 165.65039062 C-42.51804084 173.44123653 -73.20196422 171.17806198 -96.15625 159.5234375 C-97.0946875 159.02070313 -98.033125 158.51796875 -99 158 C-99.9384375 157.53851563 -100.876875 157.07703125 -101.84375 156.6015625 C-109.01703161 152.95447269 -115.00039034 148.33795375 -121 143 C-121.77214844 142.32324219 -122.54429688 141.64648438 -123.33984375 140.94921875 C-133.86825101 131.12393886 -141.23285296 118.49905003 -146 105 C-146.33902344 104.05898437 -146.67804688 103.11796875 -147.02734375 102.1484375 C-153.24650953 80.8829029 -149.6245444 56.93661204 -139.19921875 37.7578125 C-131.5195797 24.30048509 -121.03326345 13.31255386 -108 5 C-107.23300781 4.48824219 -106.46601562 3.97648438 -105.67578125 3.44921875 C-98.57146759 -1.09519346 -90.97001769 -4.3202927 -83 -7 C-82.36191406 -7.21462891 -81.72382812 -7.42925781 -81.06640625 -7.65039062 C-55.31887141 -15.80982068 -23.62453821 -12.92065897 0 0 Z " fill="#BA3B0A" transform="translate(149,11)"/>
<path d="M0 0 C1.18223145 -0.0159874 2.36446289 -0.03197479 3.58251953 -0.04844666 C4.85853027 -0.05380936 6.13454102 -0.05917206 7.44921875 -0.06469727 C8.76905762 -0.07372574 10.08889648 -0.08275421 11.44873047 -0.09205627 C14.2462813 -0.10853883 17.04371269 -0.11624369 19.84130859 -0.11914062 C23.39408327 -0.12449134 26.94570286 -0.1620334 30.49815369 -0.20788479 C33.25575638 -0.23792437 36.01309159 -0.24487009 38.77084351 -0.24586678 C40.70712429 -0.25202367 42.64328781 -0.28136929 44.5793457 -0.31138611 C55.2393216 -0.25772881 64.00567027 2.19545385 72.13671875 9.30639648 C77.22843904 15.99837172 78.44965647 21.90054253 78.47265625 30.07202148 C78.48264145 31.32218048 78.48264145 31.32218048 78.49282837 32.59759521 C78.50291795 34.35581265 78.50764654 36.1140681 78.50732422 37.87231445 C78.51168305 40.53459336 78.54800065 43.19519313 78.5859375 45.85717773 C78.653422 55.81962129 78.66466221 64.58688895 72.20703125 72.74389648 C71.24410156 73.51733398 71.24410156 73.51733398 70.26171875 74.30639648 C69.62492187 74.84264648 68.988125 75.37889648 68.33203125 75.93139648 C65.7130455 77.57175767 63.07170508 78.36928333 60.13671875 79.30639648 C62.16632845 82.75528073 64.19907033 86.2023005 66.234375 89.64782715 C66.95983361 90.87667018 67.68460807 92.10591738 68.40869141 93.33557129 C72.21292598 99.79383395 76.04348703 106.22076045 80.09375 112.52905273 C80.69356689 113.46789307 81.29338379 114.4067334 81.91137695 115.37402344 C83.03580242 117.12215738 84.17310277 118.86209725 85.32495117 120.59228516 C88.34207275 125.29579914 90.04073856 128.52504398 89.13671875 134.30639648 C85.68652314 138.619141 82.63020034 140.93502689 77.19921875 141.74389648 C73.03615063 141.14917247 71.90767832 139.41364144 69.13671875 136.30639648 C67.8300239 134.34242091 66.59413347 132.33002068 65.421875 130.28295898 C65.08912567 129.70801193 64.75637634 129.13306488 64.4135437 128.54069519 C63.33514264 126.67484278 62.26726768 124.8031902 61.19921875 122.93139648 C59.69521171 120.3211176 58.18568122 117.71405128 56.67578125 115.10717773 C56.29761765 114.45273178 55.91945404 113.79828583 55.52983093 113.12400818 C51.24425095 105.72674364 46.76752202 98.44882448 42.25219727 91.18969727 C41.70748779 90.30652832 41.16277832 89.42335938 40.6015625 88.51342773 C40.12323975 87.74490479 39.64491699 86.97638184 39.15209961 86.18457031 C38.13671875 84.30639648 38.13671875 84.30639648 38.13671875 82.30639648 C37.028125 82.35280273 35.91953125 82.39920898 34.77734375 82.44702148 C33.31382907 82.4845475 31.85028519 82.52094678 30.38671875 82.55639648 C29.65710938 82.58991211 28.9275 82.62342773 28.17578125 82.65795898 C24.57194071 82.72348336 22.58275803 82.65015924 19.68359375 80.41577148 C16.88424738 76.59848099 16.73456631 74.05179529 17.13671875 69.30639648 C18.76000977 66.61352539 18.76000977 66.61352539 21.13671875 64.30639648 C24.08178711 63.69458008 24.08178711 63.69458008 27.4765625 63.70483398 C28.70439453 63.68936523 29.93222656 63.67389648 31.19726562 63.65795898 C33.11635742 63.66956055 33.11635742 63.66956055 35.07421875 63.68139648 C37.60420017 63.68139648 40.1342202 63.66886615 42.6640625 63.64233398 C43.78546631 63.64797363 44.90687012 63.65361328 46.06225586 63.65942383 C49.58440103 63.25499105 51.38263468 62.52843815 54.13671875 60.30639648 C57.26019752 54.85519217 56.47189413 48.4825161 56.45239258 42.38647461 C56.44922787 40.31237444 56.47273713 38.23969616 56.49804688 36.16577148 C56.49901367 34.19350586 56.49901367 34.19350586 56.5 32.18139648 C56.50298096 30.98256836 56.50596191 29.78374023 56.5090332 28.54858398 C56.10101367 24.99546962 55.32708314 23.11252983 53.13671875 20.30639648 C50.427229 19.40323324 48.73536541 19.15982149 45.94067383 19.10107422 C45.10002884 19.081129 44.25938385 19.06118378 43.39326477 19.04063416 C42.4900499 19.02392166 41.58683502 19.00720917 40.65625 18.98999023 C39.72826096 18.96920914 38.80027191 18.94842804 37.84416199 18.92701721 C34.87925635 18.86162325 31.91426203 18.80268386 28.94921875 18.74389648 C26.93944395 18.70070161 24.92967812 18.65708701 22.91992188 18.61303711 C17.99227843 18.50595222 13.06454576 18.40465603 8.13671875 18.30639648 C8.14040592 18.91084972 8.14409309 19.51530296 8.147892 20.13807297 C8.2362175 34.8436584 8.30241588 49.54922816 8.34396744 64.25501633 C8.36459546 71.36664097 8.39272034 78.47808859 8.43847656 85.58959961 C8.48259322 92.44955376 8.50584083 99.30932366 8.51622772 106.16941071 C8.52363211 108.78975575 8.53809065 111.41009046 8.55963898 114.03035736 C8.588575 117.69388289 8.5926787 121.3566427 8.59082031 125.02026367 C8.61239197 126.65377274 8.61239197 126.65377274 8.63439941 128.32028198 C8.59403078 135.64985101 8.59403078 135.64985101 6.2958374 138.94927979 C2.24327314 141.49652406 -1.16031632 141.63073889 -5.86328125 141.30639648 C-9.40198065 139.65500343 -10.67398278 138.59034419 -12.86328125 135.30639648 C-13.11775684 132.95219612 -13.11775684 132.95219612 -13.12397766 130.11990356 C-13.13106247 129.04599365 -13.13814728 127.97208374 -13.14544678 126.8656311 C-13.14296936 125.68737762 -13.14049194 124.50912415 -13.13793945 123.29516602 C-13.14305038 122.05430237 -13.14816132 120.81343872 -13.15342712 119.53497314 C-13.16495911 116.12988481 -13.16739443 112.72503962 -13.16486382 109.31994867 C-13.16379467 106.47704482 -13.16867617 103.63416346 -13.17346925 100.79126441 C-13.18456894 94.08323797 -13.18499957 87.37526752 -13.17895508 80.66723633 C-13.172917 73.74906838 -13.1852209 66.83110389 -13.20652515 59.91297066 C-13.22414603 53.97231599 -13.23014166 48.03172605 -13.2268874 42.09104621 C-13.22507481 38.54345093 -13.22770801 34.99600072 -13.24160194 31.44842911 C-13.25652054 27.49101035 -13.24720583 23.53385018 -13.2355957 19.57641602 C-13.24323944 18.402211 -13.25088318 17.22800598 -13.25875854 16.01821899 C-13.25174423 14.93866943 -13.24472992 13.85911987 -13.23750305 12.74685669 C-13.23767079 11.81144609 -13.23783854 10.8760355 -13.23801136 9.91227913 C-12.78597566 6.76881149 -11.69061842 4.88099364 -9.86328125 2.30639648 C-6.69119356 0.05350296 -3.82406163 0.03917579 0 0 Z " fill="#FDFBFA" transform="translate(65.86328125,16.693603515625)"/>
</svg>
